<svg width="156" height="126" viewBox="0 0 156 126" fill="none" xmlns="http://www.w3.org/2000/svg">
<path d="M123.5 126C110.5 126 100.667 120.667 94 110C88.3333 101 85.5 90 85.5 77C85.5 60.3333 89.6667 45.3333 98 32C106.667 18.6667 119.667 7.99998 137 -3.12328e-05L141.5 8.99997C131.167 13.3333 122.167 20.1666 114.5 29.5C107.167 38.8333 103.5 48.3333 103.5 58C103.5 62 104 65.5 105 68.5C110.333 64.1666 116.5 62 123.5 62C132.5 62 140 65 146 71C152.333 76.6667 155.5 84.3333 155.5 94C155.5 103 152.333 110.667 146 117C140 123 132.5 126 123.5 126ZM38.5 126C25.5 126 15.6667 120.667 9 110C3.33334 101 0.500002 90 0.500002 77C0.500002 60.3333 4.66667 45.3333 13 32C21.6667 18.6667 34.6667 7.99998 52 -3.12328e-05L56.5 8.99997C46.1667 13.3333 37.1667 20.1666 29.5 29.5C22.1667 38.8333 18.5 48.3333 18.5 58C18.5 62 19 65.5 20 68.5C25.3333 64.1666 31.5 62 38.5 62C47.5 62 55 65 61 71C67.3333 76.6667 70.5 84.3333 70.5 94C70.5 103 67.3333 110.667 61 117C55 123 47.5 126 38.5 126Z" fill="#383838" fill-opacity="0.1"/>
</svg>
