<svg width="27" height="26" viewBox="0 0 27 26" fill="none" xmlns="http://www.w3.org/2000/svg">
<path d="M22.0937 9.4948e-05L14.8667 6.94238L17.3161 9.29531L24.5431 2.35302L22.0937 9.4948e-05Z" fill="white"/>
<path d="M25.7219 3.48387L25.6681 3.43213L18.1799 10.6249C17.2662 11.8984 16.1877 13.1348 14.964 14.3102C13.6917 15.5322 12.353 16.6022 10.9745 17.5L3.5498 24.6319L3.71172 24.7874L3.7343 24.8082C5.25311 26.1563 7.81711 26.2532 10.9538 25.081C13.8959 23.9816 17.0825 21.8716 19.9266 19.1398C22.8046 16.3753 25.014 13.2826 26.1476 10.4313C26.6894 9.06844 26.959 7.82223 26.959 6.73291C26.9591 5.38338 26.5451 4.27458 25.7219 3.48387Z" fill="white"/>
<path d="M7.22726 14.2799L0 21.2222L2.42572 23.5522L9.65298 16.61L7.22726 14.2799Z" fill="white"/>
</svg>
