<svg width="33" height="33" viewBox="0 0 33 33" fill="none" xmlns="http://www.w3.org/2000/svg">
<g clip-path="url(#clip0)">
<path d="M19.4744 21.1304C21.4691 20.2894 23.0438 19.1448 24.1977 17.6959C25.3515 16.2473 25.9285 14.6699 25.9285 12.9634C25.9285 11.2568 25.3515 9.67922 24.1973 8.23061C23.0435 6.782 21.469 5.63718 19.474 4.79603C17.479 3.95502 15.3092 3.53467 12.9642 3.53467C10.6193 3.53467 8.44947 3.95527 6.45435 4.79603C4.45942 5.63712 2.8849 6.78193 1.73106 8.23061C0.577084 9.67948 0 11.2568 0 12.9634C0 14.4242 0.436473 15.7998 1.30806 17.0889C2.17959 18.3777 3.37665 19.4644 4.89886 20.3481C4.77618 20.643 4.65034 20.9128 4.5214 21.1586C4.3924 21.4041 4.23908 21.6403 4.06094 21.8676C3.88291 22.0949 3.74495 22.2728 3.64665 22.4013C3.54842 22.5302 3.38884 22.7117 3.16774 22.9445C2.94669 23.1778 2.80544 23.3313 2.74416 23.4047C2.74416 23.3924 2.71959 23.4202 2.67044 23.4878C2.62123 23.5553 2.59362 23.5858 2.58756 23.5801C2.58136 23.5734 2.55679 23.6041 2.51383 23.6716C2.47088 23.7392 2.44933 23.773 2.44933 23.773L2.40321 23.8648C2.38503 23.9018 2.37251 23.9381 2.36645 23.9752C2.36026 24.0118 2.35716 24.0519 2.35716 24.0948C2.35716 24.1376 2.36322 24.1773 2.37574 24.2143C2.40031 24.3737 2.47088 24.5024 2.58749 24.6011C2.70404 24.6991 2.82975 24.7481 2.96495 24.7481H3.02022C3.63394 24.6622 4.16194 24.564 4.60383 24.4534C6.49446 23.9625 8.20108 23.1765 9.72335 22.0962C10.8282 22.2927 11.9086 22.3909 12.9643 22.3909C15.3093 22.3917 17.4794 21.9715 19.4744 21.1304Z" fill="#B6B6B6"/>
<path d="M31.6928 21.8116C32.5647 20.5288 33.0004 19.1512 33.0004 17.6778C33.0004 16.1676 32.5394 14.7549 31.619 13.4414C30.6981 12.1281 29.4457 11.0352 27.8622 10.1636C28.1443 11.0843 28.2855 12.0172 28.2855 12.9628C28.2855 14.6077 27.8748 16.1669 27.0517 17.6402C26.2292 19.1132 25.0506 20.4144 23.516 21.5441C22.0919 22.5753 20.4713 23.3669 18.6542 23.9195C16.8376 24.4718 14.9407 24.7482 12.9641 24.7482C12.596 24.7482 12.0557 24.7239 11.3438 24.6749C13.8113 26.2951 16.7087 27.1056 20.0355 27.1056C21.0915 27.1056 22.1717 27.0072 23.2767 26.8108C24.799 27.8915 26.5056 28.6768 28.3961 29.1682C28.8381 29.279 29.366 29.377 29.9799 29.4628C30.1271 29.4751 30.2624 29.4321 30.3851 29.3339C30.5079 29.2357 30.5878 29.101 30.6244 28.9293C30.6187 28.8556 30.6244 28.8152 30.6429 28.8093C30.6611 28.8035 30.658 28.7634 30.6336 28.6898C30.6094 28.6161 30.597 28.5792 30.597 28.5792L30.5511 28.4874C30.5383 28.4631 30.5175 28.4291 30.4866 28.3863C30.4559 28.3437 30.4315 28.3126 30.4129 28.2943C30.3949 28.2759 30.3675 28.2451 30.3304 28.2024C30.2937 28.1598 30.269 28.132 30.2566 28.1197C30.1953 28.0459 30.0542 27.8926 29.8333 27.6592C29.6121 27.4262 29.4528 27.2451 29.3545 27.1162C29.2563 26.9873 29.1181 26.8094 28.9402 26.582C28.7623 26.3551 28.6087 26.1187 28.4797 25.8731C28.3509 25.6276 28.225 25.3574 28.1023 25.063C29.6246 24.1783 30.8213 23.0949 31.6928 21.8116Z" fill="#B6B6B6"/>
</g>
<defs>
<clipPath id="clip0">
<rect width="33" height="33" fill="white"/>
</clipPath>
</defs>
</svg>
