<svg width="22" height="21" viewBox="0 0 22 21" fill="none" xmlns="http://www.w3.org/2000/svg">
<path d="M16.0448 0.116211H5.9552C2.67145 0.116211 0 2.60776 0 5.67037V15.0807C0 18.1431 2.67145 20.6347 5.9552 20.6347H16.045C19.3286 20.6347 22 18.1431 22 15.0807V5.67037C22 2.60776 19.3286 0.116211 16.0448 0.116211V0.116211ZM20.7103 15.0807C20.7103 17.4799 18.6174 19.4318 16.0448 19.4318H5.9552C3.38261 19.4318 1.28973 17.4799 1.28973 15.0807V5.67037C1.28973 3.27103 3.38261 1.31909 5.9552 1.31909H16.045C18.6174 1.31909 20.7103 3.27103 20.7103 5.67037V15.0807Z" fill="white"/>
<path d="M10.9998 4.76514C7.68284 4.76514 4.98438 7.28187 4.98438 10.3755C4.98438 13.4691 7.68284 15.9858 10.9998 15.9858C14.3168 15.9858 17.0153 13.4691 17.0153 10.3755C17.0153 7.28187 14.3168 4.76514 10.9998 4.76514ZM10.9998 14.7829C8.39417 14.7829 6.27411 12.8058 6.27411 10.3755C6.27411 7.9453 8.39417 5.96801 10.9998 5.96801C13.6056 5.96801 15.7255 7.9453 15.7255 10.3755C15.7255 12.8058 13.6056 14.7829 10.9998 14.7829Z" fill="white"/>
<path d="M17.1593 2.77246C16.1791 2.77246 15.3818 3.51597 15.3818 4.42975C15.3818 5.34368 16.1791 6.08719 17.1593 6.08719C18.1396 6.08719 18.937 5.34368 18.937 4.42975C18.937 3.51581 18.1396 2.77246 17.1593 2.77246ZM17.1593 4.88452C16.8904 4.88452 16.6716 4.68045 16.6716 4.42975C16.6716 4.17888 16.8904 3.97497 17.1593 3.97497C17.4284 3.97497 17.6473 4.17888 17.6473 4.42975C17.6473 4.68045 17.4284 4.88452 17.1593 4.88452Z" fill="white"/>
</svg>
