<svg width="39" height="39" viewBox="0 0 39 39" fill="none" xmlns="http://www.w3.org/2000/svg">
<g clip-path="url(#clip0)">
<path d="M38.5235 36.2263L27.433 25.1357C29.5812 22.4822 30.8747 19.1103 30.8747 15.4379C30.8747 6.9262 23.949 0.000488281 15.4373 0.000488281C6.92563 0.000488281 0 6.92612 0 15.4378C0 23.9495 6.92571 30.8752 15.4374 30.8752C19.1098 30.8752 22.4817 29.5817 25.1353 27.4334L36.2258 38.524C36.5426 38.8408 36.9586 39.0001 37.3747 39.0001C37.7907 39.0001 38.2067 38.8408 38.5235 38.524C39.1589 37.8886 39.1589 36.8616 38.5235 36.2263ZM15.4374 27.6252C8.71642 27.6252 3.24999 22.1587 3.24999 15.4378C3.24999 8.71683 8.71642 3.25041 15.4374 3.25041C22.1583 3.25041 27.6248 8.71683 27.6248 15.4378C27.6248 22.1587 22.1583 27.6252 15.4374 27.6252Z" fill="#B6B6B6"/>
</g>
<defs>
<clipPath id="clip0">
<rect width="39" height="39" fill="white"/>
</clipPath>
</defs>
</svg>
