<svg width="38" height="38" viewBox="0 0 38 38" fill="none" xmlns="http://www.w3.org/2000/svg">
<path d="M30.3462 0.215365L20.4268 10.1759L23.7887 13.5518L33.7081 3.59125L30.3462 0.215365Z" fill="white"/>
<path d="M35.3247 5.2134L35.2507 5.13916L24.9732 15.4595C23.7192 17.2867 22.239 19.0608 20.5594 20.7473C18.8133 22.5007 16.976 24.0359 15.0838 25.3241L4.89355 35.5571L5.11578 35.7802L5.14678 35.8101C7.23133 37.7444 10.7504 37.8834 15.0555 36.2015C19.0935 34.6241 23.4672 31.5966 27.3705 27.6769C31.3206 23.7104 34.353 19.2728 35.9089 15.1817C36.6525 13.2263 37.0226 11.4382 37.0226 9.87521C37.0227 7.93886 36.4544 6.34793 35.3247 5.2134Z" fill="white"/>
<path d="M9.94086 20.7041L0.0214844 30.665L3.35077 34.0083L13.2701 24.0473L9.94086 20.7041Z" fill="white"/>
</svg>
