<svg width="36" height="51" viewBox="0 0 36 51" fill="none" xmlns="http://www.w3.org/2000/svg">
<path d="M17.8715 10.4785C13.7263 10.4785 10.354 13.8649 10.354 18.0273C10.354 22.1897 13.7264 25.5762 17.8715 25.5762C22.0168 25.5762 25.389 22.1897 25.389 18.0273C25.389 13.8649 22.0168 10.4785 17.8715 10.4785Z" fill="white"/>
<path d="M17.8721 0.479004C8.01739 0.479004 0 8.52968 0 18.4253C0 22.4883 2.83975 28.9348 8.44054 37.5858C12.5325 43.9063 16.6828 49.1794 16.7243 49.2319L17.8722 50.6865L19.02 49.2319C19.0615 49.1793 23.2118 43.9063 27.3038 37.5858C32.9045 28.9349 35.7444 22.4883 35.7444 18.4253C35.7443 8.52968 27.7268 0.479004 17.8721 0.479004ZM17.8721 28.5171C12.1119 28.5171 7.42569 23.8114 7.42569 18.0274C7.42569 12.2433 12.1119 7.53759 17.8721 7.53759C23.6323 7.53759 28.3185 12.2433 28.3185 18.0274C28.3186 23.8114 23.6324 28.5171 17.8721 28.5171Z" fill="white"/>
</svg>
