<svg width="21" height="18" viewBox="0 0 21 18" fill="none" xmlns="http://www.w3.org/2000/svg">
<path d="M0.30823 16.0592C2.2729 17.2936 4.55941 17.9458 6.92019 17.9458C10.3774 17.9458 13.5454 16.6308 15.8416 14.2434C18.0389 11.9585 19.2475 8.88818 19.1874 5.77237C20.0203 5.06674 21 3.71939 21 2.40619C21 1.90279 20.4483 1.58324 20.0009 1.83976C19.2184 2.295 18.5048 2.41407 17.7709 2.21008C16.2722 0.763802 14.0414 0.459138 12.1617 1.46243C10.5188 2.3379 9.60547 3.94001 9.6877 5.69095C6.91223 5.35565 4.34809 3.97766 2.56026 1.83625C2.26671 1.48694 1.70967 1.52809 1.47624 1.9238C0.615044 3.38409 0.623886 5.07637 1.37279 6.44298C1.01647 6.50514 0.796302 6.80193 0.796302 7.12322C0.796302 8.49684 1.42054 9.75927 2.42586 10.6207C2.23841 10.7993 2.17652 11.0646 2.2561 11.301C2.69819 12.6159 3.69909 13.6437 4.95022 14.1585C3.58945 14.802 2.08456 15.0165 0.745019 14.8536C0.0518158 14.7608 -0.290365 15.6836 0.30823 16.0592ZM7.10145 14.3835C7.59748 14.0062 7.33399 13.22 6.71152 13.2069C5.61513 13.1841 4.61688 12.6492 3.9953 11.8079C4.29503 11.7886 4.60538 11.7431 4.9007 11.6643C5.57357 11.4839 5.54174 10.5227 4.85826 10.387C3.61775 10.1401 2.64426 9.24537 2.27909 8.09325C2.61242 8.17467 2.95195 8.22019 3.2906 8.22632C3.9617 8.22982 4.21546 7.37799 3.66814 7.02167C2.4347 6.21711 1.90861 4.79622 2.25698 3.46025C4.41086 5.62092 7.3331 6.92274 10.4242 7.06982C10.8672 7.09696 11.1997 6.68461 11.1024 6.26701C10.6824 4.46442 11.6992 3.20111 12.7912 2.61893C13.8717 2.04111 15.6065 1.86077 16.9363 3.24226C17.3315 3.65461 18.6649 3.67037 19.343 3.51366C19.0389 4.08096 18.5711 4.61938 18.1335 4.92229C17.9469 5.05186 17.8399 5.26723 17.8514 5.49222C17.9938 8.36815 16.9115 11.2274 14.8823 13.3364C12.8381 15.4612 10.0113 16.6317 6.92107 16.6317C5.69205 16.6317 4.4869 16.4339 3.34807 16.0522C4.70972 15.7913 6.00329 15.2205 7.10145 14.3835Z" fill="#C4C4C4"/>
</svg>
