<svg width="29" height="17" viewBox="0 0 29 17" fill="none" xmlns="http://www.w3.org/2000/svg">
<path d="M26.909 12.7951C26.3033 12.0663 25.6191 11.4155 24.9573 10.7862C24.7248 10.565 24.4842 10.3362 24.2525 10.1091C24.2525 10.1091 24.2524 10.109 24.2524 10.109C23.9408 9.80376 23.7882 9.58713 23.7723 9.42713C23.7566 9.26986 23.8636 9.03653 24.1098 8.69163C24.4779 8.17286 24.8703 7.65322 25.2499 7.15072C25.5873 6.70403 25.9361 6.24211 26.2704 5.77757L26.3455 5.67327C26.9978 4.76668 27.6722 3.82924 28.0336 2.68685C28.1369 2.35932 28.244 1.87462 27.9855 1.44912C27.7269 1.02351 27.2474 0.897372 26.9095 0.839597C26.7444 0.811201 26.5878 0.808853 26.4421 0.808853L22.2108 0.805085C21.4793 0.792853 20.9718 1.14103 20.6952 1.84022C20.4739 2.39863 20.2124 3.04578 19.9096 3.65968C19.3302 4.84482 18.5939 6.20984 17.5267 7.34714L17.4793 7.39782C17.4066 7.47569 17.2879 7.60303 17.2269 7.63225C17.1113 7.55929 16.9779 7.14204 16.984 6.92345C16.9842 6.91804 16.9842 6.91269 16.9842 6.90734L16.9805 1.99798C16.9805 1.97303 16.9787 1.94807 16.9754 1.92333C16.8805 1.22294 16.6955 0.5208 15.5916 0.302043C15.5562 0.294999 15.5202 0.291504 15.4842 0.291504H11.0828C10.2547 0.291504 9.8167 0.67228 9.46555 1.08511C9.36391 1.20547 9.09385 1.52503 9.23144 1.91569C9.37066 2.31099 9.78548 2.3899 9.92165 2.41578C10.4013 2.50719 10.6493 2.77941 10.7261 3.29982C10.8779 4.31098 10.8965 5.3927 10.7847 6.70234C10.7536 7.05396 10.6956 7.32121 10.6021 7.54346C10.5762 7.605 10.5535 7.64311 10.5376 7.66556C10.5122 7.65529 10.4728 7.63563 10.4182 7.59812C10.0812 7.36653 9.82714 7.0065 9.58149 6.65844C8.60034 5.26743 7.77504 3.73111 7.05812 1.96101C6.76288 1.23566 6.20786 0.830532 5.49633 0.820048C4.1407 0.797386 2.88692 0.797931 1.66464 0.821795C1.08813 0.831843 0.683858 1.01407 0.46285 1.3635C0.24157 1.71359 0.249673 2.15995 0.486996 2.6904C2.18349 6.47851 3.72391 9.23421 5.48154 11.6257C6.7191 13.3093 7.96489 14.478 9.40203 15.3037C10.912 16.1711 12.6149 16.5962 14.5905 16.5962C14.8152 16.5962 15.0437 16.5907 15.2753 16.5796C16.4942 16.5238 16.9901 16.037 17.0442 14.845C17.0746 14.215 17.1444 13.7046 17.3867 13.2612C17.4544 13.1371 17.5309 13.0539 17.5911 13.0386C17.6552 13.0226 17.7688 13.062 17.8951 13.1444C18.1261 13.295 18.325 13.4992 18.4885 13.6785C18.6542 13.8607 18.8217 14.0489 18.9839 14.2309C19.3288 14.6185 19.6855 15.0192 20.0592 15.4015C20.9045 16.2667 21.8789 16.6635 22.9566 16.5804L26.8288 16.5822C26.8289 16.5822 26.829 16.5822 26.829 16.5822C26.8413 16.5822 26.8536 16.5818 26.8659 16.581C27.3125 16.5511 27.6987 16.3028 27.9255 15.8996C28.1985 15.414 28.1944 14.799 27.9142 14.2537C27.6219 13.6868 27.2426 13.1989 26.909 12.7951ZM26.9596 15.3519C26.9062 15.4469 26.8403 15.4642 26.8064 15.4683L22.9349 15.4665C22.9348 15.4665 22.9347 15.4665 22.9345 15.4665C22.9192 15.4665 22.904 15.4671 22.8888 15.4684C22.1261 15.5322 21.4778 15.263 20.8509 14.6214C20.4953 14.2576 20.1473 13.8668 19.8109 13.4888C19.6469 13.3046 19.4774 13.1141 19.3071 12.9269C19.0959 12.6952 18.8348 12.429 18.4993 12.2102C17.997 11.8829 17.5808 11.8928 17.3201 11.9587C17.0622 12.024 16.6956 12.2102 16.4141 12.7259C16.0496 13.3931 15.9691 14.113 15.9364 14.793C15.9175 15.2089 15.8474 15.3188 15.8182 15.3467C15.7798 15.3833 15.6517 15.4476 15.2242 15.4672C13.1699 15.5642 11.4459 15.1948 9.95292 14.337C8.65417 13.5909 7.51694 12.5191 6.37411 10.9644C4.66515 8.63926 3.1615 5.94669 1.49877 2.23394C1.43852 2.09944 1.41992 2.01551 1.41453 1.97057C1.45695 1.95659 1.53983 1.93819 1.68514 1.93551C2.89503 1.91197 4.13569 1.91132 5.47909 1.93382C5.66301 1.93655 5.87243 1.99197 6.03101 2.3816C6.78007 4.23109 7.64534 5.84064 8.67642 7.30236C8.95018 7.69035 9.29093 8.1733 9.79174 8.51738C10.2504 8.83279 10.6227 8.81772 10.8542 8.74957C11.0859 8.68136 11.4074 8.49188 11.624 7.97704C11.7637 7.64519 11.8481 7.27151 11.89 6.79938C12.0094 5.39854 11.9882 4.23387 11.8233 3.13534C11.7071 2.34829 11.3024 1.77972 10.6649 1.48937C10.7781 1.43017 10.9057 1.40549 11.0829 1.40549H15.4267C15.6711 1.46054 15.7195 1.52519 15.7361 1.54731C15.8065 1.64129 15.8467 1.86359 15.8713 2.0373L15.875 6.90138C15.8652 7.36768 16.0909 8.40183 16.8593 8.6854C16.8656 8.68775 16.872 8.68994 16.8783 8.69201C17.5779 8.92158 18.0407 8.42569 18.2891 8.15926L18.3333 8.11197C19.5023 6.86611 20.2895 5.41039 20.9045 4.15251C21.225 3.50296 21.4965 2.83107 21.7261 2.2519C21.8409 1.96145 21.9454 1.91361 22.1948 1.91891C22.1983 1.91902 22.2016 1.91902 22.2051 1.91902L26.4417 1.92279C26.5403 1.92279 26.6431 1.92393 26.7229 1.93764C26.9247 1.97215 27.0079 2.0142 27.0353 2.03162C27.0381 2.06389 27.0375 2.15672 26.9765 2.35047C26.6692 3.32188 26.0752 4.14721 25.4465 5.02104L25.3714 5.1255C25.0448 5.5794 24.6998 6.03608 24.3663 6.4778C23.9818 6.98679 23.5844 7.51304 23.2076 8.04415C22.402 9.17283 22.4728 9.92182 23.4781 10.9065C23.7157 11.1394 23.9592 11.371 24.1948 11.595C24.8627 12.2303 25.4936 12.8303 26.0566 13.5077C26.3513 13.8645 26.6855 14.293 26.929 14.7653C27.056 15.0125 27.0249 15.2358 26.9596 15.3519Z" fill="#C4C4C4"/>
</svg>
