<svg width="27" height="17" viewBox="0 0 27 17" fill="none" xmlns="http://www.w3.org/2000/svg">
<path d="M25.8003 13.0369C25.213 12.2769 24.5495 11.5984 23.9078 10.9422C23.6823 10.7116 23.449 10.4731 23.2243 10.2363C23.2243 10.2362 23.2242 10.2362 23.2242 10.2361C22.922 9.9179 22.7741 9.69204 22.7586 9.52522C22.7435 9.36124 22.8472 9.11795 23.086 8.75835C23.4429 8.21745 23.8234 7.67565 24.1915 7.15173C24.5187 6.68599 24.8569 6.20437 25.1811 5.72002L25.2539 5.61127C25.8864 4.66602 26.5405 3.6886 26.8909 2.4975C26.991 2.15599 27.095 1.65063 26.8443 1.20699C26.5935 0.763227 26.1285 0.631705 25.8008 0.571467C25.6408 0.54186 25.4889 0.539411 25.3476 0.539411L21.2445 0.535483C20.5351 0.522729 20.043 0.885752 19.7748 1.61476C19.5601 2.19699 19.3066 2.87174 19.013 3.51181C18.4511 4.74749 17.7371 6.17072 16.7022 7.35653L16.6562 7.40936C16.5858 7.49055 16.4707 7.62333 16.4116 7.65379C16.2994 7.57772 16.1701 7.14267 16.176 6.91476C16.1762 6.90912 16.1762 6.90354 16.1762 6.89796L16.1726 1.77925C16.1726 1.75323 16.1709 1.72721 16.1677 1.70142C16.0756 0.971157 15.8962 0.239074 14.8257 0.0109887C14.7914 0.00364395 14.7565 0 14.7216 0H10.4535C9.65051 0 9.22578 0.397014 8.88527 0.82745C8.78671 0.952937 8.52483 1.28613 8.65825 1.69345C8.79325 2.10561 9.19551 2.18788 9.32756 2.21487C9.79268 2.31018 10.0332 2.594 10.1077 3.1366C10.2548 4.19089 10.2729 5.31873 10.1645 6.68423C10.1343 7.05084 10.0781 7.32948 9.98738 7.56121C9.96227 7.62538 9.94023 7.66512 9.92483 7.68852C9.90026 7.67782 9.86202 7.65732 9.80908 7.6182C9.48223 7.37674 9.23591 7.00136 8.9977 6.63845C8.04627 5.18812 7.24597 3.58628 6.55076 1.7407C6.26447 0.984423 5.72626 0.562015 5.03628 0.551083C3.72171 0.527455 2.50591 0.528024 1.32065 0.552905C0.761609 0.563381 0.369579 0.753377 0.155266 1.11771C-0.0593115 1.48273 -0.051454 1.94812 0.17868 2.5012C1.82379 6.45085 3.31755 9.32406 5.02193 11.8175C6.22202 13.573 7.43006 14.7915 8.82368 15.6524C10.2879 16.5568 11.9392 17.0001 13.855 17C14.0728 17 14.2945 16.9942 14.5191 16.9827C15.701 16.9246 16.1819 16.417 16.2344 15.1741C16.2638 14.5172 16.3315 13.9851 16.5664 13.5228C16.6321 13.3934 16.7063 13.3066 16.7647 13.2907C16.8268 13.274 16.937 13.315 17.0595 13.401C17.2835 13.558 17.4763 13.7709 17.6349 13.9579C17.7956 14.1478 17.9581 14.3441 18.1153 14.5339C18.4498 14.9379 18.7956 15.3558 19.158 15.7544C19.9777 16.6564 20.9226 17.0701 21.9676 16.9835L25.7226 16.9854C25.7227 16.9854 25.7228 16.9854 25.7228 16.9854C25.7347 16.9854 25.7466 16.985 25.7586 16.9841C26.1917 16.953 26.5661 16.6941 26.786 16.2737C27.0508 15.7674 27.0468 15.1261 26.7751 14.5576C26.4916 13.9666 26.1238 13.4578 25.8003 13.0369ZM25.8494 15.7027C25.7976 15.8017 25.7338 15.8197 25.7008 15.824L21.9466 15.8222C21.9465 15.8222 21.9464 15.8222 21.9463 15.8222C21.9315 15.8222 21.9166 15.8228 21.9019 15.8242C21.1623 15.8907 20.5337 15.61 19.9257 14.941C19.5809 14.5617 19.2435 14.1542 18.9172 13.7601C18.7583 13.568 18.5939 13.3694 18.4287 13.1742C18.2239 12.9327 17.9707 12.6551 17.6454 12.427C17.1583 12.0857 16.7547 12.096 16.5019 12.1648C16.2518 12.2328 15.8963 12.427 15.6234 12.9647C15.2699 13.6604 15.1919 14.4109 15.1601 15.1199C15.1418 15.5535 15.0738 15.6681 15.0455 15.6972C15.0083 15.7353 14.8841 15.8024 14.4695 15.8228C12.4774 15.924 10.8056 15.5388 9.35788 14.6445C8.09847 13.8665 6.99569 12.749 5.88747 11.128C4.23028 8.70374 2.77217 5.89635 1.15981 2.02527C1.10138 1.88504 1.08334 1.79753 1.07812 1.75067C1.11925 1.73609 1.19962 1.7169 1.34053 1.71411C2.51377 1.68958 3.71686 1.68889 5.01956 1.71235C5.19791 1.7152 5.40099 1.77299 5.55477 2.17922C6.28113 4.10759 7.12019 5.78578 8.12004 7.30984C8.38551 7.71437 8.71594 8.21791 9.20158 8.57666C9.64639 8.90553 10.0074 8.88981 10.2319 8.81876C10.4566 8.74764 10.7683 8.55008 10.9783 8.01328C11.1138 7.66728 11.1957 7.27767 11.2362 6.7854C11.3521 5.32482 11.3315 4.11049 11.1716 2.96511C11.0589 2.14449 10.6665 1.55168 10.0483 1.24895C10.1581 1.18723 10.2818 1.16149 10.4536 1.16149H14.6659C14.9029 1.21889 14.9498 1.2863 14.9659 1.30936C15.0341 1.40734 15.0732 1.63913 15.097 1.82024L15.1006 6.89176C15.0911 7.37793 15.3099 8.45619 16.0551 8.75186C16.0612 8.7543 16.0674 8.75658 16.0735 8.75875C16.7519 8.9981 17.2006 8.48107 17.4415 8.20328L17.4844 8.15397C18.618 6.85498 19.3814 5.33718 19.9777 4.02566C20.2886 3.3484 20.5518 2.64786 20.7744 2.044C20.8858 1.74116 20.9871 1.69128 21.229 1.69681C21.2323 1.69692 21.2356 1.69692 21.2389 1.69692L25.3472 1.70085C25.4428 1.70085 25.5425 1.70204 25.6199 1.71634C25.8156 1.75232 25.8963 1.79616 25.9228 1.81432C25.9256 1.84797 25.9249 1.94476 25.8658 2.14677C25.5678 3.15961 24.9919 4.02014 24.3822 4.93122L24.3094 5.04014C23.9926 5.51339 23.6581 5.98955 23.3347 6.45011C22.9618 6.98081 22.5765 7.5295 22.2111 8.08326C21.4298 9.26007 21.4985 10.041 22.4734 11.0677C22.7038 11.3105 22.94 11.552 23.1684 11.7856C23.816 12.4479 24.4278 13.0735 24.9738 13.7798C25.2596 14.1518 25.5836 14.5986 25.8197 15.091C25.9429 15.3487 25.9127 15.5816 25.8494 15.7027Z" fill="white"/>
</svg>
